<svg width="596" height="500" viewBox="0 0 596 500" fill="none">
<rect x="100.5" y="400.5" width="99" height="99" fill="#1B2F64" stroke="white"/>
<rect x="400" width="100" height="100" fill="#B787B1"/>
<path d="M100 300H200V400H100V300Z" fill="#B787B1"/>
<path d="M200 0H300V100H200V0Z" fill="#1B2F64"/>
<rect x="200" y="200" width="100" height="100" fill="#7073B6"/>
<rect x="300" y="100" width="100" height="100" fill="#604A35"/>
<rect x="300.5" y="200.5" width="99" height="99" fill="#365293" stroke="white"/>
<rect x="300.5" y="0.5" width="99" height="99" fill="#365293" stroke="white"/>
<rect x="400.5" y="100.5" width="99" height="99" fill="#365293" stroke="white"/>
<rect x="200" y="100" width="100" height="100" fill="white"/>
<path d="M200.5 300.5H299.5V399.5H200.5V300.5Z" fill="#1B2F64" stroke="white"/>
<path d="M0 300H100V400H0V300Z" fill="white"/>
<path d="M100 200H200V300H100V200Z" fill="white"/>
</svg>
